<mxfile host="app.diagrams.net" modified="2020-08-06T21:04:12.888Z" agent="5.0 (Windows NT 10.0; Win64; x64) AppleWebKit/537.36 (KHTML, like Gecko) Chrome/84.0.4147.105 Safari/537.36" etag="pqr8s--E6vGOpWxBxUOD" version="13.6.0" type="github">
  <diagram id="mbLd_7xyFMw22nvcEJfl" name="Page-1">
    <mxGraphModel dx="877" dy="548" grid="0" gridSize="10" guides="1" tooltips="1" connect="1" arrows="1" fold="1" page="1" pageScale="1" pageWidth="850" pageHeight="1100" math="0" shadow="0">
      <root>
        <mxCell id="0" />
        <mxCell id="1" parent="0" />
        <mxCell id="xcntaz-6WNTdHxSm8VjF-6" value="" style="group" vertex="1" connectable="0" parent="1">
          <mxGeometry x="15" y="400" width="80" height="80" as="geometry" />
        </mxCell>
        <mxCell id="xcntaz-6WNTdHxSm8VjF-84" value="" style="group" vertex="1" connectable="0" parent="xcntaz-6WNTdHxSm8VjF-6">
          <mxGeometry width="80" height="80" as="geometry" />
        </mxCell>
        <mxCell id="xcntaz-6WNTdHxSm8VjF-4" value="Gyre Ingress" style="shape=image;html=1;verticalAlign=top;verticalLabelPosition=bottom;labelBackgroundColor=#ffffff;imageAspect=0;aspect=fixed;image=https://cdn1.iconfinder.com/data/icons/Gallifreyan_icons/128/R_Hex_Empty.png" vertex="1" parent="xcntaz-6WNTdHxSm8VjF-84">
          <mxGeometry width="80" height="80" as="geometry" />
        </mxCell>
        <mxCell id="xcntaz-6WNTdHxSm8VjF-5" value="" style="aspect=fixed;perimeter=ellipsePerimeter;html=1;align=center;shadow=0;dashed=0;fontColor=#4277BB;labelBackgroundColor=#ffffff;fontSize=12;spacingTop=3;image;image=img/lib/ibm/infrastructure/channels.svg;" vertex="1" parent="xcntaz-6WNTdHxSm8VjF-84">
          <mxGeometry x="21.538461538461537" y="21.538461538461537" width="36.92307692307692" height="36.92307692307692" as="geometry" />
        </mxCell>
        <mxCell id="xcntaz-6WNTdHxSm8VjF-16" value="" style="group" vertex="1" connectable="0" parent="1">
          <mxGeometry x="450" y="510" width="79.91" height="70" as="geometry" />
        </mxCell>
        <mxCell id="xcntaz-6WNTdHxSm8VjF-81" value="" style="group" vertex="1" connectable="0" parent="xcntaz-6WNTdHxSm8VjF-16">
          <mxGeometry width="79.91" height="70" as="geometry" />
        </mxCell>
        <mxCell id="xcntaz-6WNTdHxSm8VjF-17" value="Rule 5" style="shape=mxgraph.gcp.extras.blue_hexagon;html=1;verticalLabelPosition=bottom;verticalAlign=top;align=center;fillColor=#FFFFFF;strokeWidth=2;strokeColor=#0066CC;" vertex="1" parent="xcntaz-6WNTdHxSm8VjF-81">
          <mxGeometry width="79.91" height="70" as="geometry" />
        </mxCell>
        <mxCell id="xcntaz-6WNTdHxSm8VjF-18" value="" style="outlineConnect=0;fontColor=#232F3E;gradientColor=none;fillColor=#ffffff;dashed=0;verticalLabelPosition=bottom;verticalAlign=top;align=center;html=1;fontSize=12;fontStyle=0;aspect=fixed;shape=mxgraph.aws4.resourceIcon;resIcon=mxgraph.aws4.filtering_rule;strokeColor=#007FFF;" vertex="1" parent="xcntaz-6WNTdHxSm8VjF-81">
          <mxGeometry x="22.44999999999999" y="18" width="35" height="35" as="geometry" />
        </mxCell>
        <mxCell id="xcntaz-6WNTdHxSm8VjF-19" value="" style="group;verticalAlign=bottom;" vertex="1" connectable="0" parent="1">
          <mxGeometry x="310" y="510" width="79.91" height="70" as="geometry" />
        </mxCell>
        <mxCell id="xcntaz-6WNTdHxSm8VjF-20" value="Rule 4" style="shape=mxgraph.gcp.extras.blue_hexagon;html=1;verticalLabelPosition=bottom;verticalAlign=top;align=center;fillColor=#FFFFFF;strokeWidth=2;strokeColor=#0066CC;" vertex="1" parent="xcntaz-6WNTdHxSm8VjF-19">
          <mxGeometry width="79.91" height="70" as="geometry" />
        </mxCell>
        <mxCell id="xcntaz-6WNTdHxSm8VjF-21" value="" style="outlineConnect=0;fontColor=#232F3E;gradientColor=none;fillColor=#ffffff;dashed=0;verticalLabelPosition=bottom;verticalAlign=top;align=center;html=1;fontSize=12;fontStyle=0;aspect=fixed;shape=mxgraph.aws4.resourceIcon;resIcon=mxgraph.aws4.filtering_rule;strokeColor=#007FFF;" vertex="1" parent="xcntaz-6WNTdHxSm8VjF-19">
          <mxGeometry x="22.44999999999999" y="18" width="35" height="35" as="geometry" />
        </mxCell>
        <mxCell id="xcntaz-6WNTdHxSm8VjF-23" value="" style="endArrow=classic;html=1;exitX=1.026;exitY=0.486;exitDx=0;exitDy=0;exitPerimeter=0;entryX=0.025;entryY=0.486;entryDx=0;entryDy=0;entryPerimeter=0;strokeColor=#66CC00;" edge="1" parent="1" source="xcntaz-6WNTdHxSm8VjF-7" target="xcntaz-6WNTdHxSm8VjF-37">
          <mxGeometry width="50" height="50" relative="1" as="geometry">
            <mxPoint x="355" y="420" as="sourcePoint" />
            <mxPoint x="425" y="470" as="targetPoint" />
          </mxGeometry>
        </mxCell>
        <mxCell id="xcntaz-6WNTdHxSm8VjF-24" value="" style="endArrow=classic;html=1;exitX=1.001;exitY=0.457;exitDx=0;exitDy=0;exitPerimeter=0;entryX=-0.025;entryY=0.514;entryDx=0;entryDy=0;entryPerimeter=0;strokeColor=#66CC00;" edge="1" parent="1">
          <mxGeometry width="50" height="50" relative="1" as="geometry">
            <mxPoint x="464.98991" y="361.99" as="sourcePoint" />
            <mxPoint x="523.00225" y="362.98" as="targetPoint" />
          </mxGeometry>
        </mxCell>
        <mxCell id="xcntaz-6WNTdHxSm8VjF-28" value="&lt;font color=&quot;#333333&quot;&gt;Selector&lt;/font&gt;" style="shape=image;html=1;verticalAlign=top;verticalLabelPosition=bottom;labelBackgroundColor=none;imageAspect=0;aspect=fixed;image=https://cdn2.iconfinder.com/data/icons/font-awesome/1792/share-alt-square-128.png;strokeColor=#007FFF;strokeWidth=2;fillColor=#FFFFFF;gradientColor=none;fontColor=#66FF66;" vertex="1" parent="1">
          <mxGeometry x="125" y="421.5" width="37" height="37" as="geometry" />
        </mxCell>
        <mxCell id="xcntaz-6WNTdHxSm8VjF-29" value="" style="endArrow=classic;html=1;fontColor=#66FF66;exitX=1;exitY=0.5;exitDx=0;exitDy=0;entryX=0;entryY=0.5;entryDx=0;entryDy=0;" edge="1" parent="1" source="xcntaz-6WNTdHxSm8VjF-4" target="xcntaz-6WNTdHxSm8VjF-28">
          <mxGeometry width="50" height="50" relative="1" as="geometry">
            <mxPoint x="105" y="670" as="sourcePoint" />
            <mxPoint x="155" y="620" as="targetPoint" />
          </mxGeometry>
        </mxCell>
        <mxCell id="xcntaz-6WNTdHxSm8VjF-30" value="" style="endArrow=classic;html=1;fontColor=#66FF66;exitX=1;exitY=0;exitDx=0;exitDy=0;strokeColor=#66CC00;" edge="1" parent="1" source="xcntaz-6WNTdHxSm8VjF-28" target="xcntaz-6WNTdHxSm8VjF-7">
          <mxGeometry width="50" height="50" relative="1" as="geometry">
            <mxPoint x="155" y="690" as="sourcePoint" />
            <mxPoint x="205" y="640" as="targetPoint" />
          </mxGeometry>
        </mxCell>
        <mxCell id="xcntaz-6WNTdHxSm8VjF-31" value="" style="endArrow=classic;html=1;exitX=1;exitY=1;exitDx=0;exitDy=0;fontColor=#FF0000;strokeColor=#CC0000;" edge="1" parent="1" source="xcntaz-6WNTdHxSm8VjF-28" target="xcntaz-6WNTdHxSm8VjF-20">
          <mxGeometry width="50" height="50" relative="1" as="geometry">
            <mxPoint x="195" y="700" as="sourcePoint" />
            <mxPoint x="245" y="650" as="targetPoint" />
          </mxGeometry>
        </mxCell>
        <mxCell id="xcntaz-6WNTdHxSm8VjF-32" value="" style="endArrow=classic;html=1;fontColor=#FF0000;exitX=1.039;exitY=0.486;exitDx=0;exitDy=0;exitPerimeter=0;strokeColor=#333333;" edge="1" parent="1" source="xcntaz-6WNTdHxSm8VjF-20" target="xcntaz-6WNTdHxSm8VjF-17">
          <mxGeometry width="50" height="50" relative="1" as="geometry">
            <mxPoint x="395" y="543" as="sourcePoint" />
            <mxPoint x="295" y="690" as="targetPoint" />
          </mxGeometry>
        </mxCell>
        <mxCell id="xcntaz-6WNTdHxSm8VjF-36" value="" style="group;verticalAlign=bottom;" vertex="1" connectable="0" parent="1">
          <mxGeometry x="385" y="330" width="79.91" height="70" as="geometry" />
        </mxCell>
        <mxCell id="xcntaz-6WNTdHxSm8VjF-37" value="Rule 2" style="shape=mxgraph.gcp.extras.blue_hexagon;html=1;verticalLabelPosition=bottom;verticalAlign=top;align=center;fillColor=#FFFFFF;strokeWidth=2;strokeColor=#0066CC;" vertex="1" parent="xcntaz-6WNTdHxSm8VjF-36">
          <mxGeometry width="79.91" height="70" as="geometry" />
        </mxCell>
        <mxCell id="xcntaz-6WNTdHxSm8VjF-38" value="" style="outlineConnect=0;fontColor=#232F3E;gradientColor=none;fillColor=#ffffff;dashed=0;verticalLabelPosition=bottom;verticalAlign=top;align=center;html=1;fontSize=12;fontStyle=0;aspect=fixed;shape=mxgraph.aws4.resourceIcon;resIcon=mxgraph.aws4.filtering_rule;strokeColor=#007FFF;" vertex="1" parent="xcntaz-6WNTdHxSm8VjF-36">
          <mxGeometry x="22.44999999999999" y="18" width="35" height="35" as="geometry" />
        </mxCell>
        <mxCell id="xcntaz-6WNTdHxSm8VjF-39" value="" style="shape=image;html=1;verticalAlign=top;verticalLabelPosition=bottom;labelBackgroundColor=#ffffff;imageAspect=0;aspect=fixed;image=https://cdn0.iconfinder.com/data/icons/small-n-flat/24/678134-sign-check-128.png;strokeColor=#007FFF;strokeWidth=2;fillColor=#FFFFFF;gradientColor=none;fontColor=#FF0000;" vertex="1" parent="xcntaz-6WNTdHxSm8VjF-36">
          <mxGeometry x="69.90999999999997" y="8" width="10" height="10" as="geometry" />
        </mxCell>
        <mxCell id="xcntaz-6WNTdHxSm8VjF-40" value="" style="group;verticalAlign=bottom;" vertex="1" connectable="0" parent="1">
          <mxGeometry x="525" y="330" width="79.91" height="70" as="geometry" />
        </mxCell>
        <mxCell id="xcntaz-6WNTdHxSm8VjF-41" value="Rule 3" style="shape=mxgraph.gcp.extras.blue_hexagon;html=1;verticalLabelPosition=bottom;verticalAlign=top;align=center;fillColor=#FFFFFF;strokeWidth=2;strokeColor=#0066CC;" vertex="1" parent="xcntaz-6WNTdHxSm8VjF-40">
          <mxGeometry width="79.91" height="70" as="geometry" />
        </mxCell>
        <mxCell id="xcntaz-6WNTdHxSm8VjF-42" value="" style="outlineConnect=0;fontColor=#232F3E;gradientColor=none;fillColor=#ffffff;dashed=0;verticalLabelPosition=bottom;verticalAlign=top;align=center;html=1;fontSize=12;fontStyle=0;aspect=fixed;shape=mxgraph.aws4.resourceIcon;resIcon=mxgraph.aws4.filtering_rule;strokeColor=#007FFF;" vertex="1" parent="xcntaz-6WNTdHxSm8VjF-40">
          <mxGeometry x="22.44999999999999" y="18" width="35" height="35" as="geometry" />
        </mxCell>
        <mxCell id="xcntaz-6WNTdHxSm8VjF-43" value="" style="shape=image;html=1;verticalAlign=top;verticalLabelPosition=bottom;labelBackgroundColor=#ffffff;imageAspect=0;aspect=fixed;image=https://cdn0.iconfinder.com/data/icons/small-n-flat/24/678134-sign-check-128.png;strokeColor=#007FFF;strokeWidth=2;fillColor=#FFFFFF;gradientColor=none;fontColor=#FF0000;" vertex="1" parent="xcntaz-6WNTdHxSm8VjF-40">
          <mxGeometry x="69.90999999999997" y="8" width="10" height="10" as="geometry" />
        </mxCell>
        <mxCell id="xcntaz-6WNTdHxSm8VjF-44" value="&lt;font color=&quot;#333333&quot;&gt;Result&lt;/font&gt;" style="rhombus;whiteSpace=wrap;html=1;labelBackgroundColor=none;strokeWidth=2;fillColor=#FFFFFF;gradientColor=none;fontColor=#FF0000;strokeColor=#0066CC;" vertex="1" parent="1">
          <mxGeometry x="665" y="400" width="80" height="80" as="geometry" />
        </mxCell>
        <mxCell id="xcntaz-6WNTdHxSm8VjF-45" value="" style="shape=image;html=1;verticalAlign=top;verticalLabelPosition=bottom;labelBackgroundColor=#ffffff;imageAspect=0;aspect=fixed;image=https://cdn0.iconfinder.com/data/icons/small-n-flat/24/678134-sign-check-128.png;strokeColor=#007FFF;strokeWidth=2;fillColor=#FFFFFF;gradientColor=none;fontColor=#FF0000;" vertex="1" parent="1">
          <mxGeometry x="725" y="411.5" width="10" height="10" as="geometry" />
        </mxCell>
        <mxCell id="xcntaz-6WNTdHxSm8VjF-46" value="" style="endArrow=classic;html=1;strokeColor=#66CC00;fontColor=#FF0000;" edge="1" parent="1" source="xcntaz-6WNTdHxSm8VjF-41" target="xcntaz-6WNTdHxSm8VjF-44">
          <mxGeometry width="50" height="50" relative="1" as="geometry">
            <mxPoint x="605" y="360" as="sourcePoint" />
            <mxPoint x="705" y="640" as="targetPoint" />
          </mxGeometry>
        </mxCell>
        <mxCell id="xcntaz-6WNTdHxSm8VjF-73" value="" style="group" vertex="1" connectable="0" parent="1">
          <mxGeometry x="245" y="330" width="79.91" height="70" as="geometry" />
        </mxCell>
        <mxCell id="xcntaz-6WNTdHxSm8VjF-68" value="" style="group" vertex="1" connectable="0" parent="xcntaz-6WNTdHxSm8VjF-73">
          <mxGeometry width="79.91" height="70" as="geometry" />
        </mxCell>
        <mxCell id="xcntaz-6WNTdHxSm8VjF-9" value="" style="group;verticalAlign=bottom;spacingTop=0;labelPosition=left;verticalLabelPosition=top;align=right;horizontal=0;spacing=10;" vertex="1" connectable="0" parent="xcntaz-6WNTdHxSm8VjF-68">
          <mxGeometry width="79.91" height="70" as="geometry" />
        </mxCell>
        <mxCell id="xcntaz-6WNTdHxSm8VjF-7" value="Rule 1&lt;br&gt;" style="shape=mxgraph.gcp.extras.blue_hexagon;html=1;verticalLabelPosition=bottom;verticalAlign=top;align=center;fillColor=#FFFFFF;strokeWidth=2;strokeColor=#0066CC;" vertex="1" parent="xcntaz-6WNTdHxSm8VjF-9">
          <mxGeometry width="79.91" height="70" as="geometry" />
        </mxCell>
        <mxCell id="xcntaz-6WNTdHxSm8VjF-8" value="" style="outlineConnect=0;fontColor=#232F3E;gradientColor=none;fillColor=#ffffff;dashed=0;verticalLabelPosition=bottom;verticalAlign=top;align=center;html=1;fontSize=12;fontStyle=0;aspect=fixed;shape=mxgraph.aws4.resourceIcon;resIcon=mxgraph.aws4.filtering_rule;strokeColor=#007FFF;" vertex="1" parent="xcntaz-6WNTdHxSm8VjF-9">
          <mxGeometry x="22.44999999999999" y="18" width="35" height="35" as="geometry" />
        </mxCell>
        <mxCell id="xcntaz-6WNTdHxSm8VjF-33" value="" style="shape=image;html=1;verticalAlign=top;verticalLabelPosition=bottom;labelBackgroundColor=#ffffff;imageAspect=0;aspect=fixed;image=https://cdn0.iconfinder.com/data/icons/small-n-flat/24/678134-sign-check-128.png;strokeColor=#007FFF;strokeWidth=2;fillColor=#FFFFFF;gradientColor=none;fontColor=#FF0000;" vertex="1" parent="xcntaz-6WNTdHxSm8VjF-9">
          <mxGeometry x="69.90999999999997" y="8" width="10" height="10" as="geometry" />
        </mxCell>
      </root>
    </mxGraphModel>
  </diagram>
</mxfile>
